<?xml version="1.0" standalone="no"?>
<!DOCTYPE svg PUBLIC "-//W3C//DTD SVG 20010904//EN"
 "http://www.w3.org/TR/2001/REC-SVG-20010904/DTD/svg10.dtd">
<svg version="1.0" xmlns="http://www.w3.org/2000/svg"
 width="1200.000000pt" height="1200.000000pt" viewBox="0 0 1200.000000 1200.000000"
 preserveAspectRatio="xMidYMid meet">
<metadata>
Created by potrace 1.11, written by Peter Selinger 2001-2013
</metadata>
<g transform="translate(0.000000,1200.000000) scale(0.100000,-0.100000)"
fill="#000000" stroke="none">
<path d="M4984 11360 c-57 -12 -1974 -971 -2019 -1011 -19 -17 -48 -53 -63
-78 l-27 -46 -3 -553 -3 -554 24 -51 c49 -108 143 -167 262 -167 112 1 205 56
258 155 21 39 22 52 25 413 l3 372 794 0 c437 0 795 -3 795 -7 -2 -40 -267
-1994 -272 -1998 -3 -3 -746 -208 -1651 -454 -905 -247 -1658 -457 -1673 -467
-51 -31 -85 -68 -112 -119 l-27 -50 -3 -539 c-3 -622 -5 -604 82 -692 66 -65
130 -89 225 -82 109 8 193 65 243 166 23 46 23 53 26 410 l3 362 500 0 499 0
0 -362 c0 -343 2 -365 21 -408 44 -99 132 -160 240 -168 118 -8 216 44 277
146 l27 47 3 373 3 372 564 0 565 0 -5 -27 c-11 -60 -755 -5666 -755 -5687 0
-88 73 -196 164 -243 73 -38 179 -38 251 -1 63 33 107 79 137 143 l23 50 804
438 803 438 807 -439 c733 -400 807 -443 815 -470 16 -55 78 -125 140 -157 49
-25 70 -29 130 -29 119 1 204 52 255 156 24 46 31 75 31 117 0 31 -169 1322
-375 2868 -206 1547 -375 2820 -375 2828 0 13 67 15 560 15 l560 0 0 -343 c0
-381 4 -412 63 -488 17 -23 57 -56 87 -73 50 -28 63 -31 140 -31 77 0 90 3
140 31 30 17 70 50 87 73 59 76 63 107 63 488 l0 343 500 0 500 0 0 -353 c0
-412 1 -420 85 -503 65 -65 129 -89 224 -82 110 8 191 65 240 168 l26 55 0
535 0 535 -26 55 c-31 65 -79 116 -135 141 -22 10 -776 219 -1674 464 -899
245 -1635 447 -1637 448 -1 2 -61 444 -133 983 -71 538 -131 989 -133 1002
l-4 22 793 0 793 0 3 -362 3 -363 28 -57 c50 -102 141 -158 257 -158 113 0
200 52 255 151 l30 54 0 550 c0 542 0 551 -22 597 -44 95 -36 90 -1092 618
l-992 495 -992 2 c-545 0 -1010 -3 -1033 -7z m2256 -755 l365 -184 -1610 0
-1610 0 365 184 365 184 880 0 880 0 365 -184z m-870 -779 c0 -7 -85 -120
-189 -250 l-189 -236 -191 240 c-105 132 -191 245 -191 250 0 6 139 10 380 10
316 0 380 -2 380 -14z m147 -1120 c-1 -14 -43 31 -138 151 l-137 170 101 127
102 128 37 -279 c21 -153 37 -287 35 -297z m-872 443 l97 -120 -34 -43 c-117
-149 -243 -304 -245 -302 -3 3 64 525 73 564 2 12 6 22 8 22 2 0 47 -54 101
-121z m536 -670 c101 -127 183 -236 181 -241 -1 -4 -64 -83 -139 -173 l-138
-165 -92 0 -93 0 -136 163 c-75 89 -138 167 -141 174 -4 10 354 471 368 472 3
1 88 -103 190 -230z m-801 -564 c10 -12 10 -15 -4 -15 -9 0 -16 7 -16 15 0 8
2 15 4 15 2 0 9 -7 16 -15z m1250 0 c0 -8 -7 -15 -16 -15 -14 0 -14 3 -4 15 7
8 14 15 16 15 2 0 4 -7 4 -15z m-1080 -657 c-29 -35 -98 -118 -154 -185 -91
-111 -104 -123 -133 -123 -18 0 -33 3 -33 7 0 13 41 318 46 341 4 22 7 22 165
22 l161 0 -52 -62z m1178 -105 c28 -212 29 -203 -7 -203 -25 0 -47 22 -173
173 -79 94 -147 178 -152 185 -6 9 27 12 152 12 l158 0 22 -167z m-2051 30
c-3 -16 -11 -74 -18 -130 l-12 -103 -451 1 c-302 1 -441 4 -421 11 40 12 887
246 899 247 5 1 6 -11 3 -26z m3105 -104 l457 -124 -446 -3 c-245 -1 -448 0
-451 2 -11 11 -38 257 -28 253 6 -2 217 -59 468 -128z m-1694 -16 l90 -108
-95 -3 c-52 -1 -135 -1 -185 0 l-90 3 88 107 c49 59 92 108 96 108 3 0 47 -48
96 -107z m571 -697 c-93 -85 -664 -566 -670 -564 -10 4 -659 559 -659 564 0 2
300 4 667 4 366 0 664 -2 662 -4z m295 -906 c40 -300 72 -546 71 -548 -4 -5
-726 620 -723 627 2 5 131 118 288 253 192 165 286 239 288 229 2 -9 36 -261
76 -561z m-1536 311 c220 -189 271 -236 260 -246 -117 -107 -718 -612 -718
-603 0 22 141 1082 146 1097 5 17 -25 41 312 -248z m1110 -950 l401 -345 -470
-313 -470 -314 -457 307 c-251 168 -461 310 -466 314 -4 5 202 188 459 409
l468 400 66 -57 c37 -31 247 -212 469 -401z m-1357 -1517 c-256 -171 -467
-311 -468 -310 -1 1 33 258 74 572 l77 572 392 -262 392 -261 -467 -311z
m1964 794 c8 -47 145 -1080 145 -1095 0 -7 -210 127 -466 298 -275 183 -463
314 -457 320 13 13 757 507 765 508 4 1 10 -14 13 -31z m-550 -1115 c327 -218
595 -399 595 -402 0 -5 -1063 -591 -1161 -640 -27 -14 -42 -7 -623 310 -328
178 -595 327 -593 331 1 6 1173 794 1185 797 1 1 270 -177 597 -396z m-1515
-998 c250 -136 468 -255 483 -265 l29 -17 -562 -307 c-309 -169 -564 -305
-567 -303 -3 3 27 245 66 539 83 624 81 609 89 604 4 -2 212 -115 462 -251z
m2389 -315 c40 -305 75 -563 77 -572 3 -10 -205 98 -566 294 l-570 312 133 72
c72 40 292 160 487 267 195 106 358 191 361 188 3 -3 38 -256 78 -561z"/>
<path d="M8880 4714 c-35 -13 -71 -31 -80 -39 -9 -8 -21 -15 -27 -15 -13 0
-100 -99 -119 -135 -7 -14 -22 -58 -34 -98 -20 -72 -20 -94 -20 -1496 0 -1554
-3 -1482 57 -1596 25 -47 115 -145 133 -145 5 0 17 -8 27 -18 40 -42 69 -43
978 -40 934 3 884 1 959 50 34 22 118 106 130 130 7 13 17 32 23 43 6 11 18
44 27 74 14 48 16 206 16 1502 0 1445 0 1450 -21 1512 -24 70 -48 118 -66 130
-7 4 -13 13 -13 18 0 18 -106 100 -145 112 -11 3 -38 13 -60 21 -35 13 -151
15 -870 15 l-830 0 -65 -25z m1706 -368 c18 -13 19 -30 22 -276 3 -261 3 -261
-20 -285 l-23 -25 -790 0 -789 0 -23 27 c-23 26 -23 30 -23 273 0 235 1 249
21 274 l20 26 793 0 c668 0 795 -2 812 -14z m-1354 -1136 c56 -37 75 -65 89
-129 12 -58 -5 -133 -41 -174 -34 -40 -115 -70 -164 -63 -75 12 -129 57 -153
126 -29 80 -10 163 49 215 72 65 147 73 220 25z m648 -8 c66 -48 80 -76 80
-157 0 -95 -26 -140 -100 -178 -62 -32 -111 -32 -173 0 -64 33 -115 132 -102
200 28 150 180 220 295 135z m603 24 c101 -46 146 -147 111 -248 -22 -59 -46
-87 -98 -112 -62 -29 -97 -30 -156 -5 -77 33 -110 88 -110 185 0 73 8 91 63
147 45 45 130 59 190 33z m-1273 -661 c17 -9 30 -20 30 -25 0 -6 6 -10 13 -10
21 0 53 -51 66 -106 10 -43 10 -60 -4 -106 -28 -96 -77 -132 -179 -132 -64 0
-76 3 -110 29 -66 50 -93 150 -63 234 13 39 48 81 66 81 6 0 11 4 11 10 0 34
118 52 170 25z m631 1 c38 -20 89 -67 105 -98 8 -15 14 -56 14 -92 0 -79 -23
-130 -77 -166 -31 -21 -48 -25 -109 -25 -63 1 -76 4 -109 29 -52 40 -89 123
-82 181 8 58 38 106 94 149 38 29 55 36 92 36 25 0 58 -6 72 -14z m635 2 c15
-7 43 -26 61 -43 95 -83 90 -228 -10 -309 -34 -27 -45 -30 -111 -31 -61 0 -78
4 -109 25 -50 35 -77 93 -77 169 0 70 9 91 56 139 60 60 128 78 190 50z
m-1268 -673 c83 -35 138 -148 112 -231 -29 -93 -100 -154 -180 -154 -45 0
-124 37 -147 68 -62 85 -56 208 14 273 63 59 129 73 201 44z m639 -2 c39 -18
69 -45 96 -86 23 -35 24 -168 2 -187 -8 -7 -15 -18 -15 -24 0 -17 -38 -50 -82
-69 -113 -52 -251 35 -266 168 -5 47 23 120 62 159 52 53 139 70 203 39z m647
-3 c25 -10 46 -26 46 -34 0 -7 7 -17 15 -20 22 -8 55 -84 55 -126 0 -70 -59
-157 -124 -184 -84 -35 -174 -7 -225 69 -27 41 -31 54 -31 116 0 64 3 75 32
116 56 78 143 102 232 63z"/>
</g>
</svg>
